<svg xmlns="http://www.w3.org/2000/svg" xmlns:xlink="http://www.w3.org/1999/xlink" height="241" version="1.1" viewBox="0 0 242 241" width="242"><ellipse cx="165" cy="190" fill="none" rx="20" ry="20" stroke="black" stroke-width="1.0"/><text fill="black" font-decoration="none" font-family="Verdana" font-size="12" font-weight="normal" text-anchor="middle"><tspan x="165" y="233">[0]</tspan></text><g><ellipse cx="68" cy="20" fill="none" rx="20" ry="20" stroke="black" stroke-width="1.0"/><ellipse cx="68" cy="20" fill="none" rx="16" ry="16" stroke="black" stroke-width="1.0"/></g><text fill="black" font-decoration="none" font-family="Verdana" font-size="12" font-weight="normal" text-anchor="middle"><tspan x="68" y="63">[Drink]</tspan></text><ellipse cx="205" cy="50" fill="none" rx="20" ry="20" stroke="black" stroke-width="1.0"/><text fill="black" font-decoration="none" font-family="Verdana" font-size="12" font-weight="normal" text-anchor="middle"><tspan x="205" y="93">[InsDollar]</tspan></text><ellipse cx="32" cy="140" fill="none" rx="20" ry="20" stroke="black" stroke-width="1.0"/><text fill="black" font-decoration="none" font-family="Verdana" font-size="12" font-weight="normal" text-anchor="middle"><tspan x="32" y="183">[InsEuro]</tspan></text><g><path d="M 89.0187373560105 24.415897946178788 L 95.52410896452757 22.77878456125396 L 93.41309433659819 25.385241397779012 L 94.23165102906061 28.63792720203755 z" fill="black" stroke="black" stroke-width="1.0"/><path d="M 184.98126264398937 45.58410205382119 L 88.53047546927854 24.30819311822321" fill="none" stroke="black" stroke-width="1.0"/></g><rect fill="white" height="19" stroke="none" stroke-width="1.0" width="40" x="116" y="25"/><text fill="#1d258f" font-decoration="none" font-family="Verdana" font-size="11" font-weight="normal" text-anchor="middle"><tspan x="136" y="38">[?tea]</tspan></text><g><path d="M 63.03661374614581 39.61346012179001 L 64.19079862599604 46.22162607484576 L 61.746674888139225 43.92461515757853 L 58.44259191161135 44.50170759750364 z" fill="black" stroke="black" stroke-width="1.0"/><path d="M 38.87638813091868 120.36029372585301 L 63.17994028592432 39.13444289559129" fill="none" stroke="black" stroke-width="1.0"/></g><rect fill="white" height="19" stroke="none" stroke-width="1.0" width="57" x="22" y="70"/><text fill="#1d258f" font-decoration="none" font-family="Verdana" font-size="11" font-weight="normal" text-anchor="middle"><tspan x="50" y="83">[?coffee]</tspan></text><g><path d="M 52.17076862844203 147.2616547835008 L 58.84440648801057 146.58153882329 L 56.378986132246396 148.8556765652449 L 56.7190441123518 152.19249549502914 z" fill="black" stroke="black" stroke-width="1.0"/><path d="M 145.82923137155768 182.7383452164991 L 51.703188905797106 147.0845412521959" fill="none" stroke="black" stroke-width="1.0"/></g><rect fill="white" height="19" stroke="none" stroke-width="1.0" width="46" x="75" y="155"/><text fill="#1d258f" font-decoration="none" font-family="Verdana" font-size="11" font-weight="normal" text-anchor="middle"><tspan x="98" y="168">[!euro]</tspan></text><g><path d="M 199.36821687810374 69.71124092663702 L 200.60446195364193 76.3045479961741 L 198.13197180256554 74.03809869102072 L 194.835318267797 74.65622122878982 z" fill="black" stroke="black" stroke-width="1.0"/><path d="M 170.6317831218946 170.28875907336888 L 199.5055774420524 69.23047895281661" fill="none" stroke="black" stroke-width="1.0"/></g><rect fill="white" height="19" stroke="none" stroke-width="1.0" width="52" x="158" y="110"/><text fill="#1d258f" font-decoration="none" font-family="Verdana" font-size="11" font-weight="normal" text-anchor="middle"><tspan x="184" y="123">[!dollar]</tspan></text><g><path d="M 144.5 190.0 L 138.5 193.0 L 140.0 190.0 L 138.5 187.0 z" fill="black" stroke="black" stroke-width="1.0"/><path d="M 129.0 190.0 L 145.0 190.0" fill="none" stroke="black" stroke-width="1.0"/></g></svg>