<svg xmlns="http://www.w3.org/2000/svg" xmlns:xlink="http://www.w3.org/1999/xlink" height="231" version="1.1" viewBox="0 0 227 231" width="227"><ellipse cx="193" cy="40" fill="none" rx="20" ry="20" stroke="black" stroke-width="1.0"/><text fill="black" font-decoration="none" font-family="Verdana" font-size="12" font-weight="normal" text-anchor="middle"><tspan x="193" y="83">[InsEuro]</tspan></text><ellipse cx="36" cy="160" fill="none" rx="20" ry="20" stroke="black" stroke-width="1.0"/><text fill="black" font-decoration="none" font-family="Verdana" font-size="12" font-weight="normal" text-anchor="middle"><tspan x="36" y="203">[InsDollar]</tspan></text><ellipse cx="173" cy="180" fill="none" rx="20" ry="20" stroke="black" stroke-width="1.0"/><text fill="black" font-decoration="none" font-family="Verdana" font-size="12" font-weight="normal" text-anchor="middle"><tspan x="173" y="223">[0]</tspan></text><g><ellipse cx="59" cy="20" fill="none" rx="20" ry="20" stroke="black" stroke-width="1.0"/><ellipse cx="59" cy="20" fill="none" rx="16" ry="16" stroke="black" stroke-width="1.0"/></g><text fill="black" font-decoration="none" font-family="Verdana" font-size="12" font-weight="normal" text-anchor="middle"><tspan x="59" y="63">[Stop]</tspan></text><g><path d="M 190.95902071493157 60.2731952337895 L 193.03578705595498 66.65183470979002 L 190.29148867674547 64.72340882169684 L 187.1021689387452 65.76179199220854 z" fill="black" stroke="black" stroke-width="1.0"/><path d="M 176.04097928507048 159.72680476619686 L 191.0331909413967 59.778727057355354" fill="none" stroke="black" stroke-width="1.0"/></g><rect fill="white" height="19" stroke="none" stroke-width="1.0" width="48" x="159" y="100"/><text fill="#1d258f" font-decoration="none" font-family="Verdana" font-size="11" font-weight="normal" text-anchor="middle"><tspan x="183" y="113">[?euro]</tspan></text><g><path d="M 56.536241790227244 40.20525622367449 L 58.47932566400197 46.62588119788662 L 55.77590462222844 44.64055637033419 L 52.565592135122365 45.61209830722155 z" fill="black" stroke="black" stroke-width="1.0"/><path d="M 39.463758209773495 139.7947437763214 L 56.620723697782665 39.71244509626786" fill="none" stroke="black" stroke-width="1.0"/></g><rect fill="white" height="19" stroke="none" stroke-width="1.0" width="38" x="29" y="80"/><text fill="#1d258f" font-decoration="none" font-family="Verdana" font-size="11" font-weight="normal" text-anchor="middle"><tspan x="48" y="93">[!tea]</tspan></text><g><path d="M 80.2737992677875 23.036948984529506 L 86.65072403286547 20.954923398583126 L 84.72456180261818 23.700811062485066 L 85.76557459559137 26.889273445024045 z" fill="black" stroke="black" stroke-width="1.0"/><path d="M 173.7243040079934 36.97573942264686 L 79.77927009725076 22.963186531423332" fill="none" stroke="black" stroke-width="1.0"/></g><rect fill="white" height="19" stroke="none" stroke-width="1.0" width="55" x="99" y="20"/><text fill="#1d258f" font-decoration="none" font-family="Verdana" font-size="11" font-weight="normal" text-anchor="middle"><tspan x="126" y="33">[!coffee]</tspan></text><g><path d="M 56.284985402817675 162.9613117376376 L 62.65541699451618 160.8595026750704 L 60.73778707660694 163.61135577760683 L 61.78869160789054 166.79657157345608 z" fill="black" stroke="black" stroke-width="1.0"/><path d="M 152.71501459718255 177.0386882623624 L 55.79022966128554 162.88908462208548" fill="none" stroke="black" stroke-width="1.0"/></g><rect fill="white" height="19" stroke="none" stroke-width="1.0" width="54" x="77" y="160"/><text fill="#1d258f" font-decoration="none" font-family="Verdana" font-size="11" font-weight="normal" text-anchor="middle"><tspan x="104" y="173">[?dollar]</tspan></text><g><path d="M 152.5 180.0 L 146.5 183.0 L 148.0 180.0 L 146.5 177.0 z" fill="black" stroke="black" stroke-width="1.0"/><path d="M 137.0 180.0 L 153.0 180.0" fill="none" stroke="black" stroke-width="1.0"/></g></svg>