<svg xmlns="http://www.w3.org/2000/svg" xmlns:xlink="http://www.w3.org/1999/xlink" height="211" version="1.1" viewBox="0 0 274 211" width="274"><g><ellipse cx="42" cy="20" fill="none" rx="20" ry="20" stroke="black" stroke-width="1.0"/><ellipse cx="42" cy="20" fill="none" rx="16" ry="16" stroke="black" stroke-width="1.0"/></g><text fill="black" font-decoration="none" font-family="Verdana" font-size="12" font-weight="normal" text-anchor="middle"><tspan x="42" y="63">[Drink, Stop]</tspan></text><ellipse cx="88" cy="160" fill="none" rx="20" ry="20" stroke="black" stroke-width="1.0"/><text fill="black" font-decoration="none" font-family="Verdana" font-size="12" font-weight="normal" text-anchor="middle"><tspan x="88" y="203">[0, 0]</tspan></text><ellipse cx="212" cy="30" fill="none" rx="20" ry="20" stroke="black" stroke-width="1.0"/><text fill="black" font-decoration="none" font-family="Verdana" font-size="12" font-weight="normal" text-anchor="middle"><tspan x="212" y="73">[InsEuro, InsEuro]</tspan></text><g><path d="M 197.88146355327865 44.863272741978115 L 195.9386014726851 51.28396483362927 L 194.78953867742717 48.13282937279074 L 191.5791926316016 47.16139833249396 z" fill="black" stroke="black" stroke-width="1.0"/><path d="M 103.08543554554544 145.10535312629827 L 198.22501076170659 44.49998867188782" fill="none" stroke="black" stroke-width="1.0"/></g><rect fill="white" height="19" stroke="none" stroke-width="1.0" width="86" x="107" y="85"/><text fill="#1d258f" font-decoration="none" font-family="Verdana" font-size="11" font-weight="normal" text-anchor="middle"><tspan x="150" y="98">[!euro, ?euro]</tspan></text><g><path d="M 62.46462465008731 21.203801450005145 L 68.63043695499171 18.561310462188978 L 66.9568593293748 21.46805054878676 L 68.27810482328287 24.550956701238952 z" fill="black" stroke="black" stroke-width="1.0"/><path d="M 191.53537534991264 28.796198549994855 L 61.96548746349981 21.17444043902941" fill="none" stroke="black" stroke-width="1.0"/></g><rect fill="white" height="19" stroke="none" stroke-width="1.0" width="104" x="74" y="15"/><text fill="#1d258f" font-decoration="none" font-family="Verdana" font-size="11" font-weight="normal" text-anchor="middle"><tspan x="126" y="28">[?coffee, !coffee]</tspan></text><g><path d="M 68.0 160.0 L 62.0 163.0 L 63.5 160.0 L 62.0 157.0 z" fill="black" stroke="black" stroke-width="1.0"/><path d="M 52.5 160.0 L 68.5 160.0" fill="none" stroke="black" stroke-width="1.0"/></g></svg>