<svg xmlns="http://www.w3.org/2000/svg" xmlns:xlink="http://www.w3.org/1999/xlink" height="282" version="1.1" viewBox="0 0 299 282" width="299"><g><ellipse cx="42" cy="170" fill="none" rx="20" ry="20" stroke="black" stroke-width="1.0"/><ellipse cx="42" cy="170" fill="none" rx="16" ry="16" stroke="black" stroke-width="1.0"/></g><text fill="black" font-decoration="none" font-family="Verdana" font-size="12" font-weight="normal" text-anchor="middle"><tspan x="42" y="213">[Drink, Stop]</tspan></text><ellipse cx="277" cy="71" fill="none" rx="20" ry="20" stroke="black" stroke-width="1.0"/><text fill="black" font-decoration="none" font-family="Verdana" font-size="12" font-weight="normal" text-anchor="middle"><tspan x="277" y="114">[0, 0]</tspan></text><ellipse cx="95" cy="20" fill="none" rx="20" ry="20" stroke="black" stroke-width="1.0"/><text fill="black" font-decoration="none" font-family="Verdana" font-size="12" font-weight="normal" text-anchor="middle"><tspan x="95" y="63">[InsEuro, InsEuro]</tspan></text><ellipse cx="221" cy="231" fill="none" rx="20" ry="20" stroke="black" stroke-width="1.0"/><text fill="black" font-decoration="none" font-family="Verdana" font-size="12" font-weight="normal" text-anchor="middle"><tspan x="221" y="274">[InsDollar, InsDollar]</tspan></text><g><path d="M 114.74367517530213 25.516999574413003 L 121.32869119413677 24.23732616619856 L 119.07858680906725 26.72470033513473 L 119.71842351317447 30.01720834455205 z" fill="black" stroke="black" stroke-width="1.0"/><path d="M 258.2520692239586 65.49825209004538 L 114.262018327106 25.382810600999477" fill="none" stroke="black" stroke-width="1.0"/></g><rect fill="white" height="19" stroke="none" stroke-width="1.0" width="86" x="143" y="35"/><text fill="#1d258f" font-decoration="none" font-family="Verdana" font-size="11" font-weight="normal" text-anchor="middle"><tspan x="186" y="48">[!euro, ?euro]</tspan></text><g><path d="M 227.8274546038098 211.67033976908172 L 227.0174396735147 205.01122002149503 L 229.33918156990876 207.43186344144118 L 232.6687414437021 207.02685597629363 z" fill="black" stroke="black" stroke-width="1.0"/><path d="M 271.1132438211044 90.3086143814746 L 227.65948494090992 212.141281583264" fill="none" stroke="black" stroke-width="1.0"/></g><rect fill="white" height="19" stroke="none" stroke-width="1.0" width="98" x="200" y="141"/><text fill="#1d258f" font-decoration="none" font-family="Verdana" font-size="11" font-weight="normal" text-anchor="middle"><tspan x="249" y="154">[!dollar, ?dollar]</tspan></text><g><path d="M 48.8295523407638 150.6710782808572 L 47.99982301818594 144.0143862156303 L 50.32872236678515 146.4281442449477 L 53.65706839939859 146.01327958365877 z" fill="black" stroke="black" stroke-width="1.0"/><path d="M 88.17044765923617 39.328921719142926 L 48.66297789342809 151.14251539595824" fill="none" stroke="black" stroke-width="1.0"/></g><rect fill="white" height="19" stroke="none" stroke-width="1.0" width="104" x="16" y="85"/><text fill="#1d258f" font-decoration="none" font-family="Verdana" font-size="11" font-weight="normal" text-anchor="middle"><tspan x="68" y="98">[?coffee, !coffee]</tspan></text><g><path d="M 61.40421118525401 176.61260828100833 L 68.05119128059789 175.70836516541263 L 65.66367217713905 178.06415644025407 L 66.1157937349369 181.387646487926 z" fill="black" stroke="black" stroke-width="1.0"/><path d="M 201.59578881474567 224.38739171899155 L 60.93093774171123 176.45132515220325" fill="none" stroke="black" stroke-width="1.0"/></g><rect fill="white" height="19" stroke="none" stroke-width="1.0" width="70" x="96" y="190"/><text fill="#1d258f" font-decoration="none" font-family="Verdana" font-size="11" font-weight="normal" text-anchor="middle"><tspan x="131" y="203">[?tea, !tea]</tspan></text><g><path d="M 257.0 71.0 L 251.0 74.0 L 252.5 71.0 L 251.0 68.0 z" fill="black" stroke="black" stroke-width="1.0"/><path d="M 241.5 71.0 L 257.5 71.0" fill="none" stroke="black" stroke-width="1.0"/></g></svg>